<?xml version="1.0" encoding="UTF-8"?>
<svg width="60px" height="60px" viewBox="0 0 60 60" version="1.1" xmlns="http://www.w3.org/2000/svg" xmlns:xlink="http://www.w3.org/1999/xlink">
    <!-- Generator: Sketch 55.1 (78136) - https://sketchapp.com -->
    <title>ico pause copy</title>
    <desc>Created with Sketch.</desc>
    <g id="Page-1" stroke="none" stroke-width="1" fill="none" fill-rule="evenodd">
        <g id="R1-V4-Desktop-Rubrik-Podcasts-Liste-II-Copy" transform="translate(-260.000000, -654.000000)">
            <g id="Group-4" transform="translate(260.000000, 574.000000)">
                <g id="Group-2" transform="translate(0.000000, 80.000000)">
                    <g id="ico-pause-copy">
                        <rect id="Rectangle-14" fill="#FF8300" x="0" y="0" width="60" height="60" rx="2"></rect>
                        <path d="M25,21 L27,21 C27.5522847,21 28,21.4477153 28,22 L28,38 C28,38.5522847 27.5522847,39 27,39 L25,39 C24.4477153,39 24,38.5522847 24,38 L24,22 C24,21.4477153 24.4477153,21 25,21 Z M33,21 L35,21 C35.5522847,21 36,21.4477153 36,22 L36,38 C36,38.5522847 35.5522847,39 35,39 L33,39 C32.4477153,39 32,38.5522847 32,38 L32,22 C32,21.4477153 32.4477153,21 33,21 Z" id="Combined-Shape" fill="#FF8300FFF"></path>
                    </g>
                </g>
            </g>
        </g>
    </g>
</svg>