<?xml version="1.0" encoding="UTF-8"?>
<svg width="60px" height="60px" viewBox="0 0 60 60" version="1.1" xmlns="http://www.w3.org/2000/svg" xmlns:xlink="http://www.w3.org/1999/xlink">
    <!-- Generator: Sketch 55.1 (78136) - https://sketchapp.com -->
    <title>Group 6</title>
    <desc>Created with Sketch.</desc>
    <g id="Page-1" stroke="none" stroke-width="1" fill="none" fill-rule="evenodd">
        <g id="R1-V4-Desktop-Rubrik-Podcasts-Liste-II-Copy" transform="translate(-260.000000, -854.000000)">
            <g id="Group-4" transform="translate(260.000000, 774.000000)">
                <g id="Group-2" transform="translate(0.000000, 80.000000)">
                    <g id="Group-6">
                        <g id="ico-pause-copy" fill="#FF8300">
                            <rect id="Rectangle-14" x="0" y="0" width="60" height="60" rx="2"></rect>
                        </g>
                        <g id="Group-5" transform="translate(19.000000, 21.000000)" fill="#000000FFF">
                            <path d="M19.6171958,17.8934476 C19.4648149,18.0404164 19.3124339,18.1139008 19.1219577,18.0404164 C18.9695768,18.0404164 18.7791006,17.966932 18.6648149,17.8567055 C18.3981482,17.6362523 18.3981482,17.2688304 18.6267196,17.011635 C20.607672,14.8071035 21.6743387,11.9779547 21.6743387,9.07532149 C21.6743387,6.13594611 20.5695768,3.27005511 18.5505292,1.02878138 C18.2838625,0.771586038 18.3219577,0.404164115 18.5505292,0.183710961 C18.6648149,0.0734843846 18.8171958,0 19.007672,0 C19.1981482,0 19.3886244,0.0734843846 19.5029101,0.220453154 C21.7505292,2.68218004 22.9695768,5.84200857 22.9695768,9.11206369 C22.9695768,12.3453766 21.7886244,15.4317208 19.6171958,17.8934476 Z M16.2648149,14.5866503 C16.1505292,14.7336191 15.960053,14.8438457 15.7695768,14.8438457 C15.6171958,14.8438457 15.4267196,14.7703613 15.3124339,14.6601347 C15.0838625,14.4396816 15.0457673,14.0722596 15.2362434,13.8518065 C16.3410054,12.4923454 16.9124339,10.8756889 16.9124339,9.14880588 C16.9124339,7.42192284 16.2648149,5.6950398 15.1219577,4.33557869 C14.9314815,4.11512554 14.9695768,3.74770361 15.1981482,3.52725046 C15.3124339,3.41702388 15.4648149,3.3435395 15.6552911,3.3435395 C15.8457673,3.3435395 16.0362434,3.41702388 16.1505292,3.56399265 C17.4838625,5.14390692 18.207672,7.1279853 18.207672,9.14880588 C18.207672,11.1328843 17.5219577,13.0067361 16.2648149,14.5866503 Z" id="Combined-Shape" stroke="#000000FFF"></path>
                            <path d="M10.275,0.174601772 L4.45,5.06763824 L1.2,5.37505414 C0.525,5.45190811 0,6.01550394 0,6.73280771 L0,11.2671923 C0,11.9588781 0.525,12.5480919 1.2,12.6249459 L4.45,12.9323618 L10.275,17.8253982 C10.75,18.2352861 11.475,17.8766342 11.475,17.2361844 L11.475,0.763815587 C11.45,0.123365788 10.75,-0.235286099 10.275,0.174601772 Z" id="Shape" fill-rule="nonzero"></path>
                        </g>
                    </g>
                </g>
            </g>
        </g>
    </g>
</svg>