<?xml version="1.0" encoding="UTF-8"?>
<svg width="18px" height="18px" viewBox="0 0 18 18" version="1.1" xmlns="http://www.w3.org/2000/svg" xmlns:xlink="http://www.w3.org/1999/xlink">
    <!-- Generator: Sketch 55.1 (78136) - https://sketchapp.com -->
    <title>noun_soccer_1914416 (1)</title>
    <desc>Created with Sketch.</desc>
    <g id="Page-1" stroke="none" stroke-width="1" fill="none" fill-rule="evenodd">
        <g id="R1-V4-Mobile_Menü_offen_III" transform="translate(-33.000000, -927.000000)" fill="#F3F3F2" fill-rule="nonzero">
            <g id="Group-11" transform="translate(0.000000, 158.000000)">
                <g id="Group-Copy" transform="translate(0.000000, 737.000000)">
                    <g id="noun_soccer_1914416-(1)" transform="translate(33.000000, 32.000000)">
                        <path d="M8.70919797,5.05205 C8.61379797,4.98265 8.45919797,4.98265 8.36339797,5.05205 L5.11919797,7.40925 C5.02359797,7.47865 4.97579797,7.62585 5.01219797,7.73805 L6.25159797,11.55205 C6.28799797,11.66465 6.41339797,11.75565 6.53119797,11.75565 L10.541598,11.75565 C10.659798,11.75565 10.784998,11.66465 10.821398,11.55205 L12.060598,7.73805 C12.097398,7.62565 12.049198,7.47865 11.953798,7.40905 L8.70919797,5.05205 Z" id="Shape"></path>
                        <path d="M9,0 C4.0374,0 0,4.0374 0,9 C0,13.9626 4.0374,18 9,18 C13.9626,18 18,13.9624 18,9 C18,4.0374 13.9626,0 9,0 Z M15.5372,12.8878 C15.5052,12.8 15.4088,12.758 15.3228,12.794 L12.7442,13.8722 C12.6578,13.9084 12.5388,13.9952 12.4778,14.0662 L10.6556,16.1852 C10.5946,16.2562 10.6048,16.3604 10.6782,16.4182 L11.2204,16.8432 C10.5142,17.0434 9.77,17.1528 9.0004,17.1528 C8.2308,17.1528 7.4864,17.0434 6.7802,16.8432 L7.3222,16.4182 C7.3958,16.3604 7.406,16.2562 7.345,16.1852 L5.5228,14.0662 C5.4618,13.9954 5.3424,13.9084 5.256,13.8722 L2.6778,12.794 C2.5914,12.7578 2.4954,12.7998 2.4632,12.888 L2.2272,13.5332 C1.4106,12.3172 0.9142,10.8702 0.855,9.3126 L1.4262,9.6966 C1.5038,9.7488 1.6062,9.726 1.6548,9.6462 L3.107,7.2586 C3.1556,7.1786 3.2012,7.0382 3.209,6.945 L3.4378,4.1598 C3.4456,4.0666 3.3758,3.9882 3.2824,3.9848 L2.599,3.9598 C3.5238,2.7878 4.7612,1.8736 6.1864,1.348 L5.997,2.0126 C5.9714,2.1026 6.0244,2.193 6.1154,2.2144 L8.8352,2.8576 C8.9262,2.8792 9.0738,2.8792 9.1648,2.8576 L11.8846,2.2144 C11.9756,2.1928 12.0286,2.1024 12.0032,2.0124 L11.8138,1.348 C13.2388,1.8736 14.4764,2.7878 15.4014,3.9598 L14.718,3.9848 C14.6244,3.9882 14.555,4.0666 14.5628,4.1598 L14.7918,6.945 C14.7994,7.0382 14.845,7.1786 14.8936,7.2586 L16.3458,9.6462 C16.3946,9.726 16.497,9.7488 16.5748,9.6966 L17.1458,9.3126 C17.0868,10.87 16.5904,12.3168 15.7738,13.5332 L15.5372,12.8878 Z" id="Shape"></path>
                    </g>
                </g>
            </g>
        </g>
    </g>
</svg>