<?xml version="1.0" encoding="UTF-8"?>
<svg width="14px" height="41px" viewBox="0 0 14 41" version="1.1" xmlns="http://www.w3.org/2000/svg" xmlns:xlink="http://www.w3.org/1999/xlink">
    <!-- Generator: Sketch 55.1 (78136) - https://sketchapp.com -->
    <title>Combined Shape</title>
    <desc>Created with Sketch.</desc>
    <g id="Page-1" stroke="none" stroke-width="1" fill="none" fill-rule="evenodd">
        <g id="R1-V4-Mobile-Rubrik-Videos" transform="translate(-283.000000, -274.000000)" fill="#000000FFF">
            <g id="Video" transform="translate(0.000000, 118.000000)">
                <g id="Group-8" transform="translate(25.000000, 156.000000)">
                    <path d="M261.274401,20.5003187 L271.773841,38.6858827 C272.199928,39.4238873 271.947069,40.3675701 271.209065,40.7936572 C270.47106,41.2197443 269.527377,40.9668853 269.10129,40.2288807 L258.20698,21.3593824 C258.050756,21.0887942 257.985803,20.7905565 258.00257,20.5003187 C257.985803,20.2100808 258.050756,19.9118431 258.20698,19.641255 L269.10129,0.771756638 C269.527377,0.0337520809 270.47106,-0.219106955 271.209065,0.206980175 C271.947069,0.633067305 272.199928,1.57675007 271.773841,2.31475463 L261.274401,20.5003187 Z" id="Combined-Shape" transform="translate(264.990411, 20.500319) scale(-1, 1) translate(-264.990411, -20.500319) "></path>
                </g>
            </g>
        </g>
    </g>
</svg>