<?xml version="1.0" encoding="UTF-8"?>
<svg width="22px" height="21px" viewBox="0 0 22 21" version="1.1" xmlns="http://www.w3.org/2000/svg" xmlns:xlink="http://www.w3.org/1999/xlink">
    <!-- Generator: Sketch 55.1 (78136) - https://sketchapp.com -->
    <title>speaker ico 2 copy 5</title>
    <desc>Created with Sketch.</desc>
    <g id="Page-1" stroke="none" stroke-width="1" fill="none" fill-rule="evenodd">
        <g id="R1-V4-Mobile-Sendung-III" transform="translate(-185.000000, -280.000000)" fill="#2A2A2A">
            <g id="BTN-hören" transform="translate(17.000000, 268.000000)">
                <g id="BTN-hören-Copy" transform="translate(154.000000, 0.000000)">
                    <g id="speaker-ico-2-copy-5" transform="translate(14.000000, 12.000000)">
                        <path d="M8.93162393,1.75770925 L8.93162393,16.6839301 C8.93162393,16.7057675 8.93084024,16.7274218 8.92929944,16.7488665 C8.85252297,19.1095055 6.883536,21 4.46581197,21 C1.99941212,21 0,19.0326169 0,16.6057269 C0,14.1788368 1.99941212,12.2114537 4.46581197,12.2114537 C5.47116084,12.2114537 6.39891859,12.5383392 7.14529915,13.0899865 L7.14529915,0.893162393 C7.14529915,0.890765919 7.14530858,0.888371649 7.14532742,0.885979619 C7.14530858,0.883606849 7.14529915,0.88123184 7.14529915,0.878854626 C7.14529915,0.393476619 7.53877576,-2.18598091e-17 8.02415377,0 L15.2920855,0 C15.7774636,-8.66318611e-16 16.1709402,0.393476619 16.1709402,0.878854626 C16.1709402,1.36423263 15.7774636,1.75770925 15.2920855,1.75770925 L8.93162393,1.75770925 Z M11.5968033,4.39427313 L21.1211454,4.39427313 C21.6065234,4.39427313 22,4.78774975 22,5.27312775 C22,5.75850576 21.6065234,6.15198238 21.1211454,6.15198238 L11.5968033,6.15198238 C11.1114253,6.15198238 10.7179487,5.75850576 10.7179487,5.27312775 C10.7179487,4.78774975 11.1114253,4.39427313 11.5968033,4.39427313 Z M11.5968033,7.90969163 L21.1211454,7.90969163 C21.6065234,7.90969163 22,8.30316825 22,8.78854626 C22,9.27392426 21.6065234,9.66740088 21.1211454,9.66740088 L11.5968033,9.66740088 C11.1114253,9.66740088 10.7179487,9.27392426 10.7179487,8.78854626 C10.7179487,8.30316825 11.1114253,7.90969163 11.5968033,7.90969163 Z M11.5968033,11.4251101 L21.1211454,11.4251101 C21.6065234,11.4251101 22,11.8185868 22,12.3039648 C22,12.7893428 21.6065234,13.1828194 21.1211454,13.1828194 L11.5968033,13.1828194 C11.1114253,13.1828194 10.7179487,12.7893428 10.7179487,12.3039648 C10.7179487,11.8185868 11.1114253,11.4251101 11.5968033,11.4251101 Z" id="Combined-Shape"></path>
                    </g>
                </g>
            </g>
        </g>
    </g>
</svg>