<?xml version="1.0" encoding="UTF-8"?>
<svg width="44px" height="44px" viewBox="0 0 44 44" version="1.1" xmlns="http://www.w3.org/2000/svg" xmlns:xlink="http://www.w3.org/1999/xlink">
    <!-- Generator: Sketch 55.1 (78136) - https://sketchapp.com -->
    <title>Group 14</title>
    <desc>Created with Sketch.</desc>
    <g id="Page-1" stroke="none" stroke-width="1" fill="none" fill-rule="evenodd">
        <g id="R1-V4-Mobile-Rubrik-Videos" transform="translate(-10.000000, -1704.000000)">
            <g id="Group-7" transform="translate(0.000000, 1530.000000)">
                <g id="slide-L-Musik" transform="translate(9.000000, 0.000000)">
                    <g id="T3" transform="translate(1.000000, 44.000000)">
                        <g id="Group-9">
                            <g id="Group-14" transform="translate(0.000000, 130.000000)">
                                <rect id="Rectangle-14" fill="#F2773E" x="0" y="0" width="44" height="44"></rect>
                                <path d="M17.4880172,16.7500236 L24.9191098,24.180866 C25.3096407,24.5713837 25.3096513,25.2045486 24.9191336,25.5950795 C24.7753762,25.7388417 24.5912146,25.8353712 24.3911979,25.8718004 L15.3052135,27.5266364 C14.7618671,27.6255965 14.2411748,27.2653501 14.1422148,26.7220037 C14.1206351,26.603519 14.1206358,26.4821105 14.1422169,26.363626 L15.7971087,17.2779476 C15.8960751,16.7346023 16.4167717,16.3743622 16.960117,16.4733286 C17.1601179,16.5097574 17.3442659,16.6062772 17.4880172,16.7500236 Z" id="Rectangle-4" fill="#F3F3F2" transform="translate(19.669023, 21.999981) scale(-1, 1) rotate(45.000000) translate(-19.669023, -21.999981) "></path>
                            </g>
                        </g>
                    </g>
                </g>
            </g>
        </g>
    </g>
</svg>