<?xml version="1.0" encoding="UTF-8"?>
<svg width="38px" height="38px" viewBox="0 0 38 38" version="1.1" xmlns="http://www.w3.org/2000/svg" xmlns:xlink="http://www.w3.org/1999/xlink">
    <!-- Generator: Sketch 55.1 (78136) - https://sketchapp.com -->
    <title>Group 6</title>
    <desc>Created with Sketch.</desc>
    <defs>
        <path d="M10.4846154,9.58249497 C9.31654816,9.58249497 8.34615385,8.64827621 8.34615385,7.48490946 C8.34615385,6.3215427 9.29857789,5.38732394 10.4846154,5.38732394 C11.6706529,5.38732394 12.6230769,6.3215427 12.6230769,7.48490946 C12.6230769,8.64827621 11.6526826,9.58249497 10.4846154,9.58249497 Z M3.47692308,14.7887324 C3.66153846,14.6076459 3.66153846,14.305835 3.47692308,14.0945674 C1.90769231,12.2535211 1.01538462,9.92957746 1.01538462,7.51509054 C1.01538462,5.07042254 1.93846154,2.6861167 3.6,0.845070423 C3.78461538,0.633802817 3.78461538,0.331991952 3.6,0.150905433 C3.50769231,0.060362173 3.35384615,0 3.23076923,0 C3.07692308,0 2.95384615,0.060362173 2.86153846,0.181086519 C1.01538462,2.20321932 0,4.82897384 0,7.54527163 C0,10.2012072 0.984615385,12.7967807 2.76923077,14.8189135 C2.86153846,14.9396378 3.01538462,15 3.16923077,15 C3.26153846,14.9396378 3.38461538,14.8792757 3.47692308,14.7887324 Z M18.2923077,14.6981891 C20.0461538,12.6760563 21,10.1408451 21,7.48490946 C21,4.79879276 20.0153846,2.20321932 18.2,0.181086519 C18.1076923,0.060362173 17.9538462,7.10542736e-15 17.8,7.10542736e-15 C17.6461538,7.10542736e-15 17.5230769,0.060362173 17.4307692,0.150905433 C17.2461538,0.331991952 17.2153846,0.633802817 17.4307692,0.845070423 C19.0615385,2.6861167 19.9538462,5.04024145 19.9538462,7.45472837 C19.9538462,9.83903421 19.0923077,12.1629779 17.4923077,13.9738431 C17.3076923,14.1851107 17.3076923,14.4869215 17.5230769,14.668008 C17.6153846,14.7585513 17.7692308,14.8189135 17.8923077,14.8189135 C18.0461538,14.8792757 18.1692308,14.8189135 18.2923077,14.6981891 Z M15.5846154,11.9818913 C16.6,10.6841046 17.1538462,9.14486922 17.1538462,7.51509054 C17.1538462,5.85513078 16.5692308,4.22535211 15.4923077,2.92756539 C15.4,2.80684105 15.2461538,2.74647887 15.0923077,2.74647887 C14.9384615,2.74647887 14.8153846,2.80684105 14.7230769,2.89738431 C14.5384615,3.07847082 14.5076923,3.38028169 14.6615385,3.56136821 C15.5846154,4.67806841 16.1076923,6.09657948 16.1076923,7.51509054 C16.1076923,8.93360161 15.6461538,10.2615694 14.7538462,11.3782696 C14.6,11.5593561 14.6307692,11.861167 14.8153846,12.0422535 C14.9076923,12.1327968 15.0615385,12.193159 15.1846154,12.193159 C15.3384615,12.193159 15.4923077,12.1026157 15.5846154,11.9818913 Z M6.18461538,12.0724346 C6.36923077,11.8913481 6.4,11.5895372 6.24615385,11.4084507 C5.35384615,10.2917505 4.86153846,8.93360161 4.86153846,7.51509054 C4.86153846,6.06639839 5.38461538,4.64788732 6.33846154,3.50100604 C6.49230769,3.31991952 6.49230769,3.01810865 6.30769231,2.83702213 C6.21538462,2.74647887 6.06153846,2.6861167 5.93846154,2.6861167 C5.78461538,2.6861167 5.63076923,2.74647887 5.53846154,2.86720322 C4.4,4.16498994 3.78461538,5.8249497 3.78461538,7.51509054 C3.78461538,9.1750503 4.33846154,10.7444668 5.38461538,12.0422535 C5.47692308,12.1629779 5.63076923,12.2535211 5.78461538,12.2535211 C5.93846154,12.22334 6.09230769,12.1629779 6.18461538,12.0724346 Z" id="path-1"></path>
    </defs>
    <g id="Page-1" stroke="none" stroke-width="1" fill="none" fill-rule="evenodd">
        <g id="R1-V4-Mobile-Sendung-III" transform="translate(-58.000000, -3144.000000)">
            <g id="Programmbühne-Copy" transform="translate(-160.000000, 3065.000000)">
                <g id="on-air">
                    <g id="sendung-copy-3" transform="translate(215.000000, 2.000000)">
                        <g id="Group-6" transform="translate(3.000000, 77.000000)">
                            <g id="speaker-ico-2-copy-3" fill="#FF8300">
                                <rect id="Rectangle-14" x="0" y="0" width="38" height="38" rx="2"></rect>
                            </g>
                            <g id="noun_live-feed_594409" transform="translate(9.000000, 12.000000)" fill-rule="nonzero" stroke="#000000FFF">
                                <g id="Shape">
                                    <use fill="#000000FFF" xlink:href="#path-1"></use>
                                    <use xlink:href="#path-1"></use>
                                    <use xlink:href="#path-1"></use>
                                    <use xlink:href="#path-1"></use>
                                </g>
                            </g>
                        </g>
                    </g>
                </g>
            </g>
        </g>
    </g>
</svg>