<?xml version="1.0" encoding="UTF-8"?>
<svg width="22px" height="21px" viewBox="0 0 22 21" version="1.1" xmlns="http://www.w3.org/2000/svg" xmlns:xlink="http://www.w3.org/1999/xlink">
    <!-- Generator: Sketch 55.1 (78136) - https://sketchapp.com -->
    <title>Shape</title>
    <desc>Created with Sketch.</desc>
    <g id="Page-1" stroke="none" stroke-width="1" fill="none" fill-rule="evenodd">
        <g id="R1-V4-Mobile_Menü_offen_III" transform="translate(-233.000000, -159.000000)" fill="#F3F3F2" fill-rule="nonzero">
            <g id="Group-11" transform="translate(0.000000, 158.000000)">
                <g id="suche" transform="translate(57.000000, 0.000000)">
                    <path d="M197.634437,20.0123457 L192.239015,14.8559671 C194.951797,11.4855967 194.680519,6.61728395 191.42518,3.53497942 C189.646801,1.83539095 187.356007,1 185.035071,1 C182.714136,1 180.423342,1.83539095 178.644962,3.53497942 C175.118346,6.90534979 175.118346,12.3786008 178.644962,15.7489712 C180.423342,17.4485597 182.714136,18.2839506 185.035071,18.2839506 C186.964161,18.2839506 188.89325,17.7078189 190.490777,16.526749 L195.916342,21.654321 C196.157478,21.8847737 196.458898,22 196.79046,22 C197.09188,22 197.423443,21.8847737 197.664579,21.654321 C198.116709,21.2222222 198.116709,20.473251 197.634437,20.0123457 Z M185.065213,15.9506173 C183.286834,15.9506173 181.659165,15.2880658 180.3932,14.1069959 C177.831128,11.6584362 177.831128,7.65432099 180.3932,5.17695473 C181.629023,3.99588477 183.286834,3.33333333 185.065213,3.33333333 C186.843593,3.33333333 188.471262,3.99588477 189.737227,5.17695473 C191.003192,6.35802469 191.666316,7.94238683 191.666316,9.64197531 C191.666316,11.3415638 190.97305,12.8971193 189.737227,14.1069959 C188.501404,15.3168724 186.813451,15.9506173 185.065213,15.9506173 Z" id="Shape"></path>
                </g>
            </g>
        </g>
    </g>
</svg>