<?xml version="1.0" encoding="UTF-8"?>
<svg width="99px" height="18px" viewBox="0 0 99 18" version="1.1" xmlns="http://www.w3.org/2000/svg" xmlns:xlink="http://www.w3.org/1999/xlink">
    <!-- Generator: Sketch 55.1 (78136) - https://sketchapp.com -->
    <title>Radio_Eins</title>
    <desc>Created with Sketch.</desc>
    <g id="Page-1" stroke="none" stroke-width="1" fill="none" fill-rule="evenodd">
        <g id="R1-V4-Mobile_Menü_offen_IV" transform="translate(-92.000000, -84.000000)" fill-rule="nonzero">
            <g id="Group-7" transform="translate(0.000000, 16.000000)">
                <g id="Group-2" transform="translate(0.000000, 53.000000)">
                    <g id="r1" transform="translate(92.000000, 15.000000)">
                        <g id="Radio_Eins">
                            <path d="M70.5017122,4.33940306 L67.3547544,4.33940306 L67.3547544,0.947368421 L70.5017122,0.947368421 L70.5017122,4.33940306 Z M94.1130013,9.93029432 C96.8549287,10.4199622 98.760705,11.4577393 98.760705,13.9558128 C98.760705,16.6511997 96.8665243,17.9809623 94.1130013,17.978457 L79.7566091,17.978457 L79.7566091,8.94203006 C79.7566091,7.96992572 79.2366627,7.42823619 78.1988512,7.42823619 L70.5017122,7.42823619 L70.5017122,4.33940306 L78.1988512,4.33940306 C81.3079001,4.33940306 82.8681852,6.30331356 82.8681852,8.94203006 L82.8681852,14.8756003 L94.0888437,14.8756003 C95.4080729,14.8756003 95.6708335,14.5455393 95.6708335,14.0735072 C95.6708335,13.5608908 95.0767046,13.2064793 94.1130013,13.0648032 L90.1255069,12.392875 C87.457316,11.8372392 85.4778775,10.8604862 85.4778775,8.36233888 C85.4778775,5.66695196 87.3720582,4.33940306 90.1255069,4.33940306 L97.4934332,4.33940306 L97.4934332,7.42823619 L90.1255069,7.42823619 C88.8062776,7.42823619 88.567749,7.7726123 88.567749,8.24575129 C88.567749,8.75836772 89.2330128,9.05323101 90.1255069,9.23940219 L94.1130013,9.93029432 Z M53.7094882,8.85200674 L53.7094882,9.78219858 L61.2649521,9.78219858 L61.2649521,8.61779851 C61.2649521,7.98394575 60.6618292,7.3421975 59.8462678,7.3421975 L55.1639258,7.3435995 C54.4346629,7.3435995 53.7094882,7.96380119 53.7094882,8.85200674 Z M70.5017122,7.42823619 L70.5017122,13.6850049 C70.5017122,16.7889649 68.7744793,18 66.177795,18 L55.0937572,18 C52.6524993,18 50.6842105,16.457502 50.6842105,13.588857 L50.6842105,8.88609754 C50.6842105,6.21616803 52.6221722,4.37489586 55.1639258,4.37489586 L59.8462678,4.37489586 C62.9885428,4.37489586 64.2897838,6.90706016 64.2897838,8.65218447 L64.2897838,12.5281314 L53.7094882,12.5281314 L53.7094882,13.588857 C53.7094882,14.5186799 54.3175914,14.9110931 55.0937572,14.9110931 L66.177795,14.9110931 C67.4425395,14.9110931 67.390136,14.5200819 67.390136,13.6850049 L67.390136,7.42823619 L70.5017122,7.42823619 Z" id="_85448864" fill="#FF8300"></path>
                            <path d="M27.7210868,0 L27.7210868,5.63534883 C27.0554398,4.67103818 25.7261467,4.08904168 24.3460945,4.08904168 C21.2326778,4.08904168 19.5665968,6.11548308 19.5665968,10.0441615 L19.5665968,12.0431163 C19.5665968,15.9717213 21.2326778,18 24.3460945,18 C25.7261467,18 27.0554398,17.4151372 27.7210868,16.4533254 L27.7210868,17.7199156 L30.3504033,17.7199156 L30.3504033,0 L27.7210868,0 L27.7210868,0 Z M27.7210868,12.1956892 C27.7210868,14.351112 26.7225793,15.5926408 24.9610565,15.5926408 C23.2225791,15.5926408 22.1984327,14.6309025 22.1984327,11.9448552 L22.1984327,10.1452154 C22.1984327,7.45527297 23.2225791,6.49493098 24.9610565,6.49493098 C26.7225793,6.49493098 27.7210868,7.73506343 27.7210868,9.89158865 L27.7210868,12.1956892 Z M43.0625334,4.08904168 L41.8223094,4.08904168 C38.7048912,4.08904168 37.0413296,6.11548308 37.0413296,10.0441615 L37.0413296,12.0431163 C37.0413296,15.9717213 38.7048912,18 41.8223094,18 L43.0625334,18 C46.1760242,18 47.8421053,15.9717213 47.8421053,12.0431163 L47.8421053,10.0441615 C47.8421053,6.11548308 46.1760242,4.08904168 43.0625334,4.08904168 Z M45.2087873,11.9448552 C45.2087873,14.6309025 44.1857525,15.5926408 42.447275,15.5926408 L42.4360858,15.5926408 C40.6976824,15.5926408 39.6731656,14.6309025 39.6731656,11.9448552 L39.6731656,10.1452154 C39.6731656,7.45527297 40.6976824,6.49493098 42.4360858,6.49493098 L42.447275,6.49493098 C44.1857525,6.49493098 45.2087873,7.45527297 45.2087873,10.1452154 L45.2087873,11.9448552 Z M32.5503802,17.7199156 L35.1843651,17.7199156 L35.1843651,4.41667653 L32.5503802,4.41667653 L32.5503802,17.7199156 Z M35.1836241,0 L32.5496392,0 L32.5496392,2.37193521 L35.1836241,2.37193521 L35.1836241,0 Z M32.5503802,0 L35.1836241,0 L32.5503802,0 Z M5.6891584,4.40021395 C4.36238465,4.40021395 3.24175917,5.05548365 2.62790864,5.94402231 L2.62790864,4.41020909 L0,4.41020909 L0,17.7038204 L2.62790864,17.7038204 L2.62790864,10.3756916 C2.62790864,8.12090528 3.60018444,6.97014115 5.25574317,6.97014115 C5.25322375,6.97263993 7.2409761,6.97263993 7.2409761,6.97263993 L7.2409761,4.40021395 C7.2409761,4.40021395 5.69056632,4.40131635 5.6891584,4.40021395 Z M12.8501057,4.41270787 L8.89697943,4.41270787 L8.89697943,6.98153267 L12.7741524,6.98153267 C14.4081479,6.98153267 15.3018769,7.79187405 15.3018769,9.23631895 L15.3018769,9.7140279 C14.5619069,9.38639305 13.5669563,9.20846484 12.314135,9.20846484 C9.27304068,9.20846484 6.97554724,10.5496511 6.97554724,13.5154153 C6.97554724,16.7823566 9.4545875,17.9985301 11.6253687,17.9985301 C13.0803367,17.9985301 14.383991,17.3154798 15.3018769,16.4040111 L15.3018769,17.7199156 L17.8825092,17.7199156 L17.8825092,8.87083485 C17.8825092,5.85472748 15.840367,4.41270787 12.8501057,4.41270787 Z M15.3018769,13.9452799 C14.6891379,14.7809031 13.4639562,15.6440864 12.0587098,15.6440864 C10.3213438,15.6440864 9.47874434,14.7555478 9.47874434,13.4386144 C9.47874434,12.2235433 10.5515007,11.4621487 12.2377372,11.4621487 C13.6685484,11.4621487 14.5860637,11.6915225 15.3018769,12.0445127 L15.3018769,13.9452799 Z" id="_85159784" fill="#2C2D2F"></path>
                        </g>
                    </g>
                </g>
            </g>
        </g>
    </g>
</svg>