<?xml version="1.0" encoding="UTF-8"?>
<svg width="30px" height="25px" viewBox="0 0 30 25" version="1.1" xmlns="http://www.w3.org/2000/svg" xmlns:xlink="http://www.w3.org/1999/xlink">
    <!-- Generator: Sketch 55.1 (78136) - https://sketchapp.com -->
    <title>Group 5</title>
    <desc>Created with Sketch.</desc>
    <g id="Page-1" stroke="none" stroke-width="1" fill="none" fill-rule="evenodd">
        <g id="R1-V4-Player-I" transform="translate(-31.000000, -374.000000)" fill="#FFFFFF">
            <g id="Group-2" transform="translate(-1.000000, 0.000000)">
                <g id="BTN-hören" transform="translate(18.000000, 362.000000)">
                    <g id="Group-7" transform="translate(7.000000, 13.000000)">
                        <g id="icos">
                            <g id="ico-audio">
                                <g id="Group-5" transform="translate(7.000000, 0.000000)">
                                    <path d="M24.7796158,22.6022497 C24.5871346,22.7878944 24.3946534,22.8807168 24.1540519,22.7878944 C23.9615707,22.7878944 23.7209692,22.695072 23.5766083,22.5558385 C23.2397662,22.2773713 23.2397662,21.8132594 23.528488,21.4883811 C26.0307436,18.7037097 27.378112,15.130048 27.378112,11.463564 C27.378112,7.75066877 25.9826233,4.13059593 23.4322474,1.29951333 C23.0954053,0.974634995 23.1435256,0.510523093 23.4322474,0.232055951 C23.5766083,0.0928223805 23.7690895,0 24.009691,0 C24.2502925,0 24.490894,0.0928223805 24.6352549,0.278467142 C27.4743526,3.38801689 29.0142022,7.37937925 29.0142022,11.5099752 C29.0142022,15.5941599 27.5224729,19.4926999 24.7796158,22.6022497 Z M20.5450293,18.4252425 C20.4006684,18.6108873 20.1600669,18.7501209 19.9194654,18.7501209 C19.7269842,18.7501209 19.4863827,18.6572985 19.3420218,18.5180649 C19.0533,18.2395978 19.0051797,17.7754859 19.2457812,17.4970187 C20.6412699,15.7798047 21.3630744,13.7377123 21.3630744,11.5563864 C21.3630744,9.37506043 20.5450293,7.19373449 19.1014203,5.47652045 C18.8608188,5.19805331 18.9089391,4.73394141 19.1976609,4.45547426 C19.3420218,4.31624069 19.534503,4.22341831 19.7751045,4.22341831 C20.015706,4.22341831 20.2563075,4.31624069 20.4006684,4.50188545 C22.0848789,6.49756664 22.9991647,9.00377091 22.9991647,11.5563864 C22.9991647,14.0625906 22.1329992,16.4295613 20.5450293,18.4252425 Z" id="Combined-Shape" stroke="#FFFFFF"></path>
                                    <path d="M12.9789474,0.220549607 L5.62105263,6.40122724 L1.51578947,6.78954207 C0.663157895,6.88662078 0,7.59853129 0,8.50459922 L0,14.2322429 C0,15.1059512 0.663157895,15.8502213 1.51578947,15.9473 L5.62105263,16.3356149 L12.9789474,22.5162925 C13.5789474,23.0340456 14.4947368,22.5810116 14.4947368,21.7720224 L14.4947368,0.964819689 C14.4631579,0.155830469 13.5789474,-0.297203494 12.9789474,0.220549607 Z" id="Shape" fill-rule="nonzero"></path>
                                </g>
                            </g>
                        </g>
                    </g>
                </g>
            </g>
        </g>
    </g>
</svg>