<?xml version="1.0" encoding="UTF-8"?>
<svg width="60px" height="60px" viewBox="0 0 60 60" version="1.1" xmlns="http://www.w3.org/2000/svg" xmlns:xlink="http://www.w3.org/1999/xlink">
    <!-- Generator: Sketch 55.1 (78136) - https://sketchapp.com -->
    <title>speaker ico 2 copy 6</title>
    <desc>Created with Sketch.</desc>
    <g id="Page-1" stroke="none" stroke-width="1" fill="none" fill-rule="evenodd">
        <g id="R1-V4-Mobile-Sendung-III" transform="translate(-131.000000, -2063.000000)">
            <g id="Group-5" transform="translate(17.000000, 1848.000000)">
                <g id="speaker-ico-2-copy-6" transform="translate(114.000000, 215.000000)">
                    <g id="Group-7">
                        <circle id="Oval" fill-opacity="0.6" fill="#FFFFFF" cx="30" cy="30" r="30"></circle>
                        <path d="M25.1183166,23.6076718 L35.2118936,33.7009088 C35.6024245,34.0914265 35.6024351,34.7245915 35.2119174,35.1151224 C35.0681601,35.2588846 34.8839984,35.3554141 34.6839817,35.3918433 L22.3425822,37.6395901 C21.7992358,37.7385501 21.2785435,37.3783038 21.1795835,36.8349573 C21.1580038,36.7164726 21.1580045,36.5950641 21.1795856,36.4765797 L23.4274081,24.1355958 C23.5263746,23.5922505 24.0470712,23.2320103 24.5904164,23.3309768 C24.7904174,23.3674056 24.9745654,23.4639254 25.1183166,23.6076718 Z" id="Rectangle-4" fill="#2A2A2A" transform="translate(28.334099, 30.485282) scale(-1, 1) rotate(45.000000) translate(-28.334099, -30.485282) "></path>
                    </g>
                </g>
            </g>
        </g>
    </g>
</svg>