<?xml version="1.0" encoding="UTF-8"?>
<svg width="22px" height="16px" viewBox="0 0 22 16" version="1.1" xmlns="http://www.w3.org/2000/svg" xmlns:xlink="http://www.w3.org/1999/xlink">
    <!-- Generator: Sketch 55.1 (78136) - https://sketchapp.com -->
    <title>Shape</title>
    <desc>Created with Sketch.</desc>
    <defs>
        <path d="M10.2157791,8.94366197 C9.07766231,8.94366197 8.1321499,8.07172446 8.1321499,6.98591549 C8.1321499,5.90010652 9.06015282,5.02816901 10.2157791,5.02816901 C11.3714054,5.02816901 12.2994083,5.90010652 12.2994083,6.98591549 C12.2994083,8.07172446 11.3538959,8.94366197 10.2157791,8.94366197 Z M3.3877712,13.8028169 C3.56765286,13.6338028 3.56765286,13.3521127 3.3877712,13.1549296 C1.85877712,11.4366197 0.989349112,9.26760563 0.989349112,7.01408451 C0.989349112,4.73239437 1.8887574,2.50704225 3.50769231,0.788732394 C3.68757396,0.591549296 3.68757396,0.309859155 3.50769231,0.14084507 C3.41775148,0.0563380282 3.2678501,0 3.14792899,0 C2.99802761,0 2.87810651,0.0563380282 2.78816568,0.169014085 C0.989349112,2.05633803 0,4.50704225 0,7.04225352 C0,9.52112676 0.959368836,11.943662 2.69822485,13.8309859 C2.78816568,13.943662 2.93806706,14 3.08796844,14 C3.17790927,13.943662 3.29783037,13.8873239 3.3877712,13.8028169 Z M17.8232742,13.7183099 C19.5321499,11.8309859 20.4615385,9.46478873 20.4615385,6.98591549 C20.4615385,4.47887324 19.5021696,2.05633803 17.7333333,0.169014085 C17.6433925,0.0563380282 17.4934911,7.10542736e-15 17.3435897,7.10542736e-15 C17.1936884,7.10542736e-15 17.0737673,0.0563380282 16.9838264,0.14084507 C16.8039448,0.309859155 16.7739645,0.591549296 16.9838264,0.788732394 C18.5727811,2.50704225 19.4422091,4.70422535 19.4422091,6.95774648 C19.4422091,9.18309859 18.6027613,11.3521127 17.043787,13.0422535 C16.8639053,13.2394366 16.8639053,13.5211268 17.0737673,13.6901408 C17.1637081,13.7746479 17.3136095,13.8309859 17.4335306,13.8309859 C17.583432,13.8873239 17.7033531,13.8309859 17.8232742,13.7183099 Z M15.1850099,11.1830986 C16.174359,9.97183099 16.7140039,8.53521127 16.7140039,7.01408451 C16.7140039,5.46478873 16.1443787,3.94366197 15.095069,2.73239437 C15.0051282,2.61971831 14.8552268,2.56338028 14.7053254,2.56338028 C14.5554241,2.56338028 14.435503,2.61971831 14.3455621,2.70422535 C14.1656805,2.87323944 14.1357002,3.15492958 14.2856016,3.32394366 C15.1850099,4.36619718 15.6946746,5.69014085 15.6946746,7.01408451 C15.6946746,8.33802817 15.2449704,9.57746479 14.3755424,10.6197183 C14.225641,10.7887324 14.2556213,11.0704225 14.435503,11.2394366 C14.5254438,11.3239437 14.6753452,11.3802817 14.7952663,11.3802817 C14.9451677,11.3802817 15.095069,11.2957746 15.1850099,11.1830986 Z M6.0260355,11.2676056 C6.20591716,11.0985915 6.23589744,10.8169014 6.08599606,10.6478873 C5.21656805,9.6056338 4.73688363,8.33802817 4.73688363,7.01408451 C4.73688363,5.66197183 5.24654832,4.33802817 6.17593688,3.26760563 C6.32583826,3.09859155 6.32583826,2.81690141 6.14595661,2.64788732 C6.05601578,2.56338028 5.9061144,2.50704225 5.78619329,2.50704225 C5.63629191,2.50704225 5.48639053,2.56338028 5.3964497,2.67605634 C4.28717949,3.88732394 3.68757396,5.43661972 3.68757396,7.01408451 C3.68757396,8.56338028 4.22721893,10.028169 5.24654832,11.2394366 C5.33648915,11.3521127 5.48639053,11.4366197 5.63629191,11.4366197 C5.78619329,11.4084507 5.93609467,11.3521127 6.0260355,11.2676056 Z" id="path-1"></path>
    </defs>
    <g id="Page-1" stroke="none" stroke-width="1" fill="none" fill-rule="evenodd">
        <g id="R1-V4-Mobile_Menü_V" transform="translate(-280.000000, -87.000000)" fill-rule="nonzero" stroke="#FF8300FFF">
            <g id="Group-7" transform="translate(0.000000, 16.000000)">
                <g id="Group-2" transform="translate(0.000000, 53.000000)">
                    <g id="Group-9" transform="translate(225.000000, 1.000000)">
                        <g id="noun_live-feed_594409" transform="translate(56.000000, 18.000000)">
                            <g id="Shape">
                                <use fill="#FF8300FFF" xlink:href="#path-1"></use>
                                <use xlink:href="#path-1"></use>
                                <use xlink:href="#path-1"></use>
                                <use xlink:href="#path-1"></use>
                            </g>
                        </g>
                    </g>
                </g>
            </g>
        </g>
    </g>
</svg>