<?xml version="1.0" encoding="UTF-8"?>
<svg width="19px" height="18px" viewBox="0 0 19 18" version="1.1" xmlns="http://www.w3.org/2000/svg" xmlns:xlink="http://www.w3.org/1999/xlink">
    <!-- Generator: Sketch 55.1 (78136) - https://sketchapp.com -->
    <title>Combined Shape</title>
    <desc>Created with Sketch.</desc>
    <g id="Page-1" stroke="none" stroke-width="1" fill="none" fill-rule="evenodd">
        <g id="R1-V4-Mobile_Menü_offen_III" transform="translate(-191.000000, -927.000000)" fill="#F3F3F2">
            <g id="Group-11" transform="translate(0.000000, 158.000000)">
                <g id="Group-Copy" transform="translate(0.000000, 737.000000)">
                    <path d="M198.53304,33.5066079 L198.53304,46.3127753 C198.53304,46.3342961 198.532137,46.3556062 198.530368,46.3766696 C198.455097,48.3905089 196.798767,50 194.76652,50 C192.686328,50 191,48.3136716 191,46.2334802 C191,44.1532887 192.686328,42.4669604 194.76652,42.4669604 C195.614443,42.4669604 196.396925,42.7471479 197.026432,43.2199885 L197.026432,32.753304 C197.026432,32.3372657 197.363697,32 197.779736,32 L203.885463,32 C204.301501,32 204.638767,32.3372657 204.638767,32.753304 C204.638767,33.1693423 204.301501,33.5066079 203.885463,33.5066079 L198.53304,33.5066079 Z M200.792952,35.7665198 L208.801762,35.7665198 C209.2178,35.7665198 209.555066,36.1037855 209.555066,36.5198238 C209.555066,36.9358621 209.2178,37.2731278 208.801762,37.2731278 L200.792952,37.2731278 C200.376913,37.2731278 200.039648,36.9358621 200.039648,36.5198238 C200.039648,36.1037855 200.376913,35.7665198 200.792952,35.7665198 Z M200.792952,38.7797357 L208.801762,38.7797357 C209.2178,38.7797357 209.555066,39.1170014 209.555066,39.5330396 C209.555066,39.9490779 209.2178,40.2863436 208.801762,40.2863436 L200.792952,40.2863436 C200.376913,40.2863436 200.039648,39.9490779 200.039648,39.5330396 C200.039648,39.1170014 200.376913,38.7797357 200.792952,38.7797357 Z M200.792952,41.7929515 L208.801762,41.7929515 C209.2178,41.7929515 209.555066,42.1302172 209.555066,42.5462555 C209.555066,42.9622938 209.2178,43.2995595 208.801762,43.2995595 L200.792952,43.2995595 C200.376913,43.2995595 200.039648,42.9622938 200.039648,42.5462555 C200.039648,42.1302172 200.376913,41.7929515 200.792952,41.7929515 Z" id="Combined-Shape"></path>
                </g>
            </g>
        </g>
    </g>
</svg>