<?xml version="1.0" encoding="UTF-8"?>
<svg width="44px" height="44px" viewBox="0 0 44 44" version="1.1" xmlns="http://www.w3.org/2000/svg" xmlns:xlink="http://www.w3.org/1999/xlink">
    <!-- Generator: Sketch 55.1 (78136) - https://sketchapp.com -->
    <title>speaker ico 2 copy 3</title>
    <desc>Created with Sketch.</desc>
    <g id="Page-1" stroke="none" stroke-width="1" fill="none" fill-rule="evenodd">
        <g id="R1-V4-Desktop-Sendung-Feed" transform="translate(-380.000000, -1558.000000)">
            <g id="Beitrag-Copy-2" transform="translate(380.000000, 1510.000000)">
                <g id="speaker-ico-2-copy-3" transform="translate(0.000000, 48.000000)">
                    <rect id="Rectangle-14" fill="#FF8300" x="0" y="0" width="44" height="44" rx="2"></rect>
                    <path d="M17,13 L19,13 C19.5522847,13 20,13.4477153 20,14 L20,30 C20,30.5522847 19.5522847,31 19,31 L17,31 C16.4477153,31 16,30.5522847 16,30 L16,14 C16,13.4477153 16.4477153,13 17,13 Z M25,13 L27,13 C27.5522847,13 28,13.4477153 28,14 L28,30 C28,30.5522847 27.5522847,31 27,31 L25,31 C24.4477153,31 24,30.5522847 24,30 L24,14 C24,13.4477153 24.4477153,13 25,13 Z" id="Combined-Shape" fill="#FFFFFF"></path>
                </g>
            </g>
        </g>
    </g>
</svg>