<?xml version="1.0" encoding="UTF-8"?>
<svg width="60px" height="60px" viewBox="0 0 60 60" version="1.1" xmlns="http://www.w3.org/2000/svg" xmlns:xlink="http://www.w3.org/1999/xlink">
    <!-- Generator: Sketch 55.1 (78136) - https://sketchapp.com -->
    <title>insta copy</title>
    <desc>Created with Sketch.</desc>
    <g id="Page-1" stroke="none" stroke-width="1" fill="none" fill-rule="evenodd">
        <g id="R1-V4-Desktop-Start-IV" transform="translate(-900.000000, -5724.000000)">
            <g id="footer" transform="translate(0.000000, 5448.000000)">
                <g id="insta-copy" transform="translate(900.000000, 276.000000)">
                    <circle id="Path" fill="#FFFFFFFFF" cx="30" cy="30" r="30"></circle>
                    <path d="M35.5584779,13 L24.441136,13 C23.0945154,13 22,14.0304273 22,15.2975171 L22,42.4337765 C22,43.7004802 23.0949014,44.7309075 24.441136,44.7309075 L35.558864,44.7309075 C36.9054846,44.7309075 38,43.7004802 38,42.4337765 L38,15.2975171 C38,14.0308134 36.9050986,13 35.5584779,13 Z M27.5146587,14.7631928 L32.4787781,14.7631928 C32.8096422,14.7631928 33.0787346,15.0207031 33.0787346,15.3372825 C33.0787346,15.654248 32.8096422,15.9117583 32.4787781,15.9117583 L27.5146587,15.9117583 C27.1834085,15.9117583 26.91393,15.654248 26.91393,15.3372825 C26.91393,15.0207031 27.1834085,14.7631928 27.5146587,14.7631928 Z M29.999807,44.0232367 C29.0643534,44.0232367 28.3034047,43.3024395 28.3034047,42.4167893 C28.3034047,41.5311392 29.0643534,40.810728 29.999807,40.810728 C30.9352605,40.810728 31.6962093,41.5311392 31.6962093,42.4167893 C31.6962093,43.3024395 30.9352605,44.0232367 29.999807,44.0232367 Z M36.7429481,40.2868277 L23.1632363,40.2868277 L23.1632363,17.5297879 L36.7429481,17.5297879 L36.7429481,40.2868277 L36.7429481,40.2868277 Z" id="Shape" fill="#FF8300" fill-rule="nonzero"></path>
                </g>
            </g>
        </g>
    </g>
</svg>