<?xml version="1.0" encoding="UTF-8"?>
<svg width="60px" height="60px" viewBox="0 0 60 60" version="1.1" xmlns="http://www.w3.org/2000/svg" xmlns:xlink="http://www.w3.org/1999/xlink">
    <!-- Generator: Sketch 55.1 (78136) - https://sketchapp.com -->
    <title>twitter</title>
    <desc>Created with Sketch.</desc>
    <g id="Page-1" stroke="none" stroke-width="1" fill="none" fill-rule="evenodd">
        <g id="R1-V4-Desktop-Start-IV" transform="translate(-580.000000, -5620.000000)">
            <g id="footer" transform="translate(0.000000, 5448.000000)">
                <g id="twitter" transform="translate(580.000000, 172.000000)">
                    <circle id="Path" fill="#FFFFFFFFF" cx="30" cy="30" r="30"></circle>
                    <path d="M41.701532,22.6362126 C42.8881258,21.9186047 43.7986148,20.7807309 44.2259201,19.4252492 C43.1149263,20.0913621 41.8872454,20.5730897 40.5773904,20.833887 C39.5321359,19.7043189 38.038211,19 36.3848682,19 C33.2129483,19 30.6425427,21.5996678 30.6425427,24.8056478 C30.6425427,25.2607973 30.6902037,25.7043189 30.7888126,26.127907 C26.0161413,25.8853821 21.7841756,23.576412 18.9491695,20.0614618 C18.4544814,20.9219269 18.1718025,21.9186047 18.1718025,22.9817276 C18.1718025,24.9950166 19.1858308,26.7724252 20.7274168,27.8156146 C19.7857017,27.7857143 18.899865,27.5215947 18.1241416,27.089701 L18.1241416,27.1611296 C18.1241416,29.9750831 20.1028937,32.3222591 22.7341081,32.8538206 C22.2509245,32.9900332 21.7447321,33.0581395 21.2188179,33.0581395 C20.8490345,33.0581395 20.4874685,33.0232558 20.1390503,32.9551495 C20.8687562,35.2607973 22.9904913,36.9418605 25.5050185,36.986711 C23.5377707,38.5448505 21.0610436,39.4717608 18.3706638,39.4717608 C17.907202,39.4717608 17.4486705,39.4468439 17,39.3920266 C19.5424664,41.038206 22.5615425,42 25.8057757,42 C36.3733639,42 42.148559,33.1528239 42.148559,25.4800664 C42.148559,25.2275748 42.1452721,24.9767442 42.1337677,24.7292359 C43.2562658,23.910299 44.232494,22.8870432 45,21.7225914 C43.9695369,22.1843854 42.8618301,22.4966777 41.701532,22.6362126 Z" id="Shape-Copy" fill="#FF8300"></path>
                </g>
            </g>
        </g>
    </g>
</svg>