<?xml version="1.0" encoding="UTF-8"?>
<svg width="20px" height="19px" viewBox="0 0 20 19" version="1.1" xmlns="http://www.w3.org/2000/svg" xmlns:xlink="http://www.w3.org/1999/xlink">
    <!-- Generator: Sketch 55.1 (78136) - https://sketchapp.com -->
    <title>Group Copy</title>
    <desc>Created with Sketch.</desc>
    <g id="Page-1" stroke="none" stroke-width="1" fill="none" fill-rule="evenodd">
        <g id="R1-V4-Desktop-Flypout-Programm" transform="translate(-961.000000, -83.000000)" fill="#2C2D2F">
            <g id="Group-10">
                <g id="Group-9">
                    <g id="Group-Copy" transform="translate(961.000000, 83.000000)">
                        <path d="M7.5,1.5 L7.5,14.3408244 C7.5,14.3837528 7.49639336,14.4258388 7.48946655,14.4667959 C7.49644709,14.5602839 7.5,14.6547271 7.5,14.75 C7.5,16.8210678 5.82106781,18.5 3.75,18.5 C1.67893219,18.5 0,16.8210678 0,14.75 C0,12.6789322 1.67893219,11 3.75,11 C4.59420444,11 5.3732546,11.2789586 6,11.7497254 L6,1 L6,0.5 C6,0.223857625 6.22385763,5.07265313e-17 6.5,0 L13.0454122,0 C13.3215546,-5.07265313e-17 13.5454122,0.223857625 13.5454122,0.5 L13.5454122,1 C13.5454122,1.27614237 13.3215546,1.5 13.0454122,1.5 L7.5,1.5 Z M10.5,4 L18.9317653,4 C19.2079076,4 19.4317653,4.22385763 19.4317653,4.5 L19.4317653,5 C19.4317653,5.27614237 19.2079076,5.5 18.9317653,5.5 L10.5,5.5 C10.2238576,5.5 10,5.27614237 10,5 L10,4.5 C10,4.22385763 10.2238576,4 10.5,4 Z M10.5,7 L18.9317653,7 C19.2079076,7 19.4317653,7.22385763 19.4317653,7.5 L19.4317653,8 C19.4317653,8.27614237 19.2079076,8.5 18.9317653,8.5 L10.5,8.5 C10.2238576,8.5 10,8.27614237 10,8 L10,7.5 C10,7.22385763 10.2238576,7 10.5,7 Z M10.5,10 L18.9317653,10 C19.2079076,10 19.4317653,10.2238576 19.4317653,10.5 L19.4317653,11 C19.4317653,11.2761424 19.2079076,11.5 18.9317653,11.5 L10.5,11.5 C10.2238576,11.5 10,11.2761424 10,11 L10,10.5 C10,10.2238576 10.2238576,10 10.5,10 Z" id="Combined-Shape"></path>
                    </g>
                </g>
            </g>
        </g>
    </g>
</svg>