<?xml version="1.0" encoding="UTF-8"?>
<svg width="44px" height="44px" viewBox="0 0 44 44" version="1.1" xmlns="http://www.w3.org/2000/svg" xmlns:xlink="http://www.w3.org/1999/xlink">
    <!-- Generator: Sketch 55.1 (78136) - https://sketchapp.com -->
    <title>icos</title>
    <desc>Created with Sketch.</desc>
    <g id="Page-1" stroke="none" stroke-width="1" fill="none" fill-rule="evenodd">
        <g id="R1-V4-Desktop-Start-IV" transform="translate(-262.000000, -1150.000000)">
            <g id="highlights-container" transform="translate(0.000000, 804.000000)">
                <g id="T3" transform="translate(262.000000, 109.000000)">
                    <g id="icos" transform="translate(0.000000, 237.000000)">
                        <g id="ico-pause">
                            <rect id="Rectangle-14" fill="#F2773E" x="0" y="0" width="44" height="44" rx="2"></rect>
                            <rect id="Rectangle-14" fill="#FFFFFFFFF" x="16" y="13" width="4" height="18" rx="1"></rect>
                            <rect id="Rectangle-14" fill="#FFFFFFFFF" x="24" y="13" width="4" height="18" rx="1"></rect>
                        </g>
                        <g id="ico-video">
                            <rect id="Rectangle-14" fill="#F2773E" x="0" y="0" width="44" height="44" rx="2"></rect>
                            <path d="M17.4274631,16.1054823 L25.6936906,24.3714314 C26.0842215,24.7619491 26.0842321,25.3951141 25.6937144,25.7856449 C25.5499571,25.9294071 25.3657954,26.0259367 25.1657787,26.0623658 L15.0586764,27.9031787 C14.5153299,28.0021387 13.9946376,27.6418924 13.8956776,27.0985459 C13.8740979,26.9800612 13.8740986,26.8586527 13.8956797,26.7401683 L15.7365546,16.6334063 C15.8355211,16.0900611 16.3562177,15.7298209 16.8995629,15.8287873 C17.0995639,15.8652161 17.2837119,15.9617359 17.4274631,16.1054823 Z" id="Rectangle-4" fill="#F3F3F2" transform="translate(19.899513, 21.899510) scale(-1, 1) rotate(45.000000) translate(-19.899513, -21.899510) "></path>
                        </g>
                        <g id="ico-audio">
                            <rect id="Rectangle-14" fill="#FF8300" x="0" y="0" width="44" height="44" rx="2"></rect>
                            <g id="Group-5" transform="translate(10.000000, 13.000000)" fill="#FFFFFFFFF">
                                <path d="M19.6348216,17.8248766 C19.4818589,17.9712822 19.3288963,18.044485 19.137693,17.9712822 C18.9847303,17.9712822 18.793527,17.8980794 18.678805,17.7882752 C18.4111204,17.5686669 18.4111204,17.202653 18.6405643,16.9464433 C20.6290789,14.7503599 21.6998174,11.9320529 21.6998174,9.04054318 C21.6998174,6.11243203 20.5908382,3.25752366 18.564083,1.0248389 C18.2963984,0.768629177 18.334639,0.402615283 18.564083,0.183006947 C18.678805,0.0732027788 18.8317677,0 19.022971,0 C19.2141743,0 19.4053776,0.0732027788 19.5200996,0.219608336 C21.7762988,2.67190143 23,5.81962091 23,9.07714457 C23,12.2980668 21.8145394,15.3725835 19.6348216,17.8248766 Z M16.2696432,14.5307516 C16.1549212,14.6771571 15.9637179,14.7869613 15.7725146,14.7869613 C15.6195519,14.7869613 15.4283486,14.7137585 15.3136266,14.6039544 C15.0841826,14.384346 15.045942,14.0183321 15.2371453,13.7987238 C16.3461245,12.4444724 16.9197345,10.8340113 16.9197345,9.11374596 C16.9197345,7.39348066 16.2696432,5.67321536 15.1224233,4.31896395 C14.93122,4.09935561 14.9694606,3.73334172 15.1989046,3.51373338 C15.3136266,3.40392921 15.4665893,3.33072644 15.6577926,3.33072644 C15.8489959,3.33072644 16.0401992,3.40392921 16.1549212,3.55033477 C17.4933444,5.12419452 18.219917,7.10066954 18.219917,9.11374596 C18.219917,11.090221 17.5315851,12.9568918 16.2696432,14.5307516 Z" id="Combined-Shape" stroke="#FFFFFFFFF"></path>
                                <path d="M9.8496732,0.174601772 L4.26579521,5.06763824 L1.1503268,5.37505414 C0.503267974,5.45190811 0,6.01550394 0,6.73280771 L0,11.2671923 C0,11.9588781 0.503267974,12.5480919 1.1503268,12.6249459 L4.26579521,12.9323618 L9.8496732,17.8253982 C10.3050109,18.2352861 11,17.8766342 11,17.2361844 L11,0.763815587 C10.9760349,0.123365788 10.3050109,-0.235286099 9.8496732,0.174601772 Z" id="Shape" fill-rule="nonzero"></path>
                            </g>
                        </g>
                    </g>
                </g>
            </g>
        </g>
    </g>
</svg>