<?xml version="1.0" encoding="UTF-8"?>
<svg width="44px" height="44px" viewBox="0 0 44 44" version="1.1" xmlns="http://www.w3.org/2000/svg" xmlns:xlink="http://www.w3.org/1999/xlink">
    <!-- Generator: Sketch 55.1 (78136) - https://sketchapp.com -->
    <title>speaker ico 2 copy 3</title>
    <desc>Created with Sketch.</desc>
    <g id="Page-1" stroke="none" stroke-width="1" fill="none" fill-rule="evenodd">
        <g id="R1-V4-Desktop-Sendung-Feed" transform="translate(-381.000000, -711.000000)">
            <g id="Beitrag" transform="translate(380.000000, 664.000000)">
                <g id="speaker-ico-2-copy-3" transform="translate(1.000000, 47.000000)">
                    <rect id="Rectangle-14" fill="#FF8300" x="0" y="0" width="44" height="44" rx="2"></rect>
                    <g id="Group-5" transform="translate(12.578947, 13.894737)" fill="#FFFFFFFFF">
                        <path d="M18.1027345,15.7661555 C17.9606738,15.8956516 17.8186131,15.9603997 17.6410372,15.8956516 C17.4989765,15.8956516 17.3214006,15.8309036 17.2148551,15.7337815 C16.9662488,15.5395373 16.9662488,15.2157969 17.1793399,14.9891786 C19.0261292,13.0467365 20.0205541,10.5539357 20.0205541,7.99638688 C20.0205541,5.406464 18.990614,2.8812892 17.1083096,0.906473006 C16.8597033,0.679854755 16.8952185,0.356114395 17.1083096,0.16187018 C17.2148551,0.0647480719 17.3569158,0 17.5344917,0 C17.7120676,0 17.8896435,0.0647480719 17.996189,0.194244216 C20.0915845,2.36330462 21.2280702,5.14747172 21.2280702,8.02876091 C21.2280702,10.8776761 20.1270997,13.5970951 18.1027345,15.7661555 Z M14.9773989,12.8524923 C14.8708534,12.9819884 14.6932775,13.0791105 14.5157016,13.0791105 C14.3736409,13.0791105 14.196065,13.0143625 14.0895195,12.9172403 C13.8764284,12.7229961 13.8409132,12.3992558 14.0184891,12.2050116 C15.0484293,11.0071722 15.5811569,9.58271464 15.5811569,8.06113495 C15.5811569,6.53955526 14.9773989,5.01797557 13.9119436,3.82013624 C13.7343677,3.62589203 13.7698829,3.30215167 13.9829739,3.10790745 C14.0895195,3.01078534 14.2315802,2.94603727 14.4091561,2.94603727 C14.5867319,2.94603727 14.7643078,3.01078534 14.8708534,3.14028149 C16.1138846,4.53236503 16.788673,6.28056297 16.788673,8.06113495 C16.788673,9.80933289 16.1493998,11.4604087 14.9773989,12.8524923 Z" id="Combined-Shape" stroke="#FFFFFFFFF"></path>
                        <path d="M9.50407063,0.154435778 L4.11611818,4.48234084 L1.10996445,4.7542511 C0.485609448,4.82222867 0,5.32073082 0,5.95518811 L0,9.96586452 C0,10.5776626 0.485609448,11.098824 1.10996445,11.1668015 L4.11611818,11.4387118 L9.50407063,15.7666169 C9.94343156,16.1291639 10.6140351,15.8119352 10.6140351,15.2454555 L10.6140351,0.67559712 C10.5909108,0.1091174 9.94343156,-0.208111243 9.50407063,0.154435778 Z" id="Shape" fill-rule="nonzero"></path>
                    </g>
                </g>
            </g>
        </g>
    </g>
</svg>