<?xml version="1.0" encoding="UTF-8"?>
<svg width="25px" height="24px" viewBox="0 0 25 24" version="1.1" xmlns="http://www.w3.org/2000/svg" xmlns:xlink="http://www.w3.org/1999/xlink">
    <!-- Generator: Sketch 55.1 (78136) - https://sketchapp.com -->
    <title>Combined Shape</title>
    <desc>Created with Sketch.</desc>
    <g id="Page-1" stroke="none" stroke-width="1" fill="none" fill-rule="evenodd">
        <g id="R1-V4-Desktop-Start-IV" transform="translate(-753.000000, -4116.000000)" fill="#000000FFF">
            <g id="speaker-ico-2-copy-5" transform="translate(744.000000, 4105.000000)">
                <path d="M19,13 L19,30 C19,30.0285686 18.998802,30.0568573 18.9964535,30.0848188 C18.8965327,32.758161 16.6977784,34.8947368 14,34.8947368 C11.2385763,34.8947368 9,32.6561606 9,29.8947368 C9,27.1333131 11.2385763,24.8947368 14,24.8947368 C15.1256059,24.8947368 16.1643395,25.2666817 17,25.8943707 L17,12 C17,11.4477153 17.4477153,11 18,11 L26.1052632,11 C26.6575479,11 27.1052632,11.4477153 27.1052632,12 C27.1052632,12.5522847 26.6575479,13 26.1052632,13 L19,13 Z M22,16 L32.6315789,16 C33.1838637,16 33.6315789,16.4477153 33.6315789,17 C33.6315789,17.5522847 33.1838637,18 32.6315789,18 L22,18 C21.4477153,18 21,17.5522847 21,17 C21,16.4477153 21.4477153,16 22,16 Z M22,20 L32.6315789,20 C33.1838637,20 33.6315789,20.4477153 33.6315789,21 C33.6315789,21.5522847 33.1838637,22 32.6315789,22 L22,22 C21.4477153,22 21,21.5522847 21,21 C21,20.4477153 21.4477153,20 22,20 Z M22,24 L32.6315789,24 C33.1838637,24 33.6315789,24.4477153 33.6315789,25 C33.6315789,25.5522847 33.1838637,26 32.6315789,26 L22,26 C21.4477153,26 21,25.5522847 21,25 C21,24.4477153 21.4477153,24 22,24 Z" id="Combined-Shape"></path>
            </g>
        </g>
    </g>
</svg>