<?xml version="1.0" encoding="UTF-8"?>
<svg width="239px" height="36px" viewBox="0 0 239 36" version="1.1" xmlns="http://www.w3.org/2000/svg" xmlns:xlink="http://www.w3.org/1999/xlink">
    <!-- Generator: Sketch 55.1 (78136) - https://sketchapp.com -->
    <title>Radio_Eins</title>
    <desc>Created with Sketch.</desc>
    <g id="Page-1" stroke="none" stroke-width="1" fill="none" fill-rule="evenodd">
        <g id="R1-V4-Desktop-Flypout-Programm" transform="translate(-263.000000, -70.000000)" fill-rule="nonzero">
            <g id="Group-10">
                <g id="Group-9">
                    <g id="Radio_Eins" transform="translate(263.000000, 70.000000)">
                        <path d="M141.003424,8.67880612 L134.709509,8.67880612 L134.709509,1.89473684 L141.003424,1.89473684 L141.003424,8.67880612 Z M188.226003,19.8605886 C193.709857,20.8399244 197.52141,22.9154786 197.52141,27.9116256 C197.52141,33.3023994 193.733049,35.9619246 188.226003,35.956914 L159.513218,35.956914 L159.513218,17.8840601 C159.513218,15.9398514 158.473325,14.8564724 156.397702,14.8564724 L141.003424,14.8564724 L141.003424,8.67880612 L156.397702,8.67880612 C162.6158,8.67880612 165.73637,12.6066271 165.73637,17.8840601 L165.73637,29.7512006 L188.177687,29.7512006 C190.816146,29.7512006 191.341667,29.0910787 191.341667,28.1470144 C191.341667,27.1217816 190.153409,26.4129585 188.226003,26.1296064 L180.251014,24.78575 C174.914632,23.6744785 170.955755,21.7209723 170.955755,16.7246778 C170.955755,11.3339039 174.744116,8.67880612 180.251014,8.67880612 L194.986866,8.67880612 L194.986866,14.8564724 L180.251014,14.8564724 C177.612555,14.8564724 177.135498,15.5452246 177.135498,16.4915026 C177.135498,17.5167354 178.466026,18.106462 180.251014,18.4788044 L188.226003,19.8605886 Z M107.418976,17.7040135 L107.418976,19.5643972 L122.529904,19.5643972 L122.529904,17.235597 C122.529904,15.9678915 121.323658,14.684395 119.692536,14.684395 L110.327852,14.687199 C108.869326,14.687199 107.418976,15.9276024 107.418976,17.7040135 Z M141.003424,14.8564724 L141.003424,27.3700098 C141.003424,33.5779298 137.548959,36 132.35559,36 L110.187514,36 C105.304999,36 101.368421,32.9150039 101.368421,27.1777141 L101.368421,17.7721951 C101.368421,12.4323361 105.244344,8.74979173 110.327852,8.74979173 L119.692536,8.74979173 C125.977086,8.74979173 128.579568,13.8141203 128.579568,17.3043689 L128.579568,25.0562628 L107.418976,25.0562628 L107.418976,27.1777141 C107.418976,29.0373599 108.635183,29.8221862 110.187514,29.8221862 L132.35559,29.8221862 C134.885079,29.8221862 134.780272,29.0401639 134.780272,27.3700098 L134.780272,14.8564724 L141.003424,14.8564724 Z M225.148068,10.6430856 C225.148068,8.03299944 224.673984,7.44327287 224.673984,7.44327287 C224.673984,7.44327287 222.468281,6.23873126 217.955637,6.23873126 C216.984426,6.24670053 215.849687,6.31266845 214.697703,6.46910242 L214.697703,2.34588653 L212.742199,2.34588653 L212.742199,14.5982087 C212.742199,14.5982087 215.870054,14.9835381 218.544637,14.9835381 C223.424328,14.9835381 224.689147,13.9763099 224.689147,13.9763099 C224.689147,13.9763099 225.148068,13.3334548 225.148068,10.6430856 Z M223.180076,10.7283864 C223.180076,11.4472448 223.118679,12.148984 223.06739,12.576521 C222.443009,12.7457943 221.046029,13.032098 218.575113,13.0371157 C217.491662,13.0371157 216.204544,12.9581608 214.697703,12.8297669 L214.697703,8.43839957 C218.873478,7.81561525 221.882106,8.51159886 223.039888,8.87597196 C223.090433,9.30144286 223.180076,10.0102659 223.180076,10.7283864 Z M238.736842,10.6430856 C238.736842,8.03299944 238.259933,7.44327287 238.259933,7.44327287 C238.259933,7.44327287 236.05215,6.23873126 231.542479,6.23873126 C230.57112,6.24670053 229.43861,6.31266845 228.283801,6.46910242 L228.283801,2.34588653 L226.326068,2.34588653 L226.326068,14.5982087 C226.326068,14.5982087 229.456747,14.9835381 232.131479,14.9835381 C237.01117,14.9835381 238.27584,13.9763099 238.27584,13.9763099 C238.27584,13.9763099 238.736842,13.3334548 238.736842,10.6430856 Z M236.763945,10.7283864 C236.763945,11.4472448 236.704629,12.148984 236.654083,12.576521 C236.029702,12.7457943 234.629749,13.032098 232.158833,13.0371157 C231.078504,13.0371157 229.790642,12.9581608 228.283801,12.8297669 L228.283801,8.43839957 C232.46032,7.81561525 235.46315,8.51159886 236.625838,8.87597196 C236.674301,9.30144286 236.763945,10.0102659 236.763945,10.7283864 Z M211.457162,6.2768067 C203.920876,6.31768614 200.922357,8.07889658 200.922357,8.07889658 L200.922357,14.8564724 L202.9235,14.8564724 L202.9235,9.35663749 C203.869587,9.04613081 206.524101,8.28919697 211.457162,8.22322906 L211.457162,6.2768067 Z" id="_85448864" fill="#FF8300"></path>
                        <path d="M55.4421735,0 L55.4421735,11.2706977 C54.1108797,9.34207636 51.4522933,8.17808337 48.692189,8.17808337 C42.4653556,8.17808337 39.1331935,12.2309662 39.1331935,20.0883231 L39.1331935,24.0862326 C39.1331935,31.9434425 42.4653556,36 48.692189,36 C51.4522933,36 54.1108797,34.8302745 55.4421735,32.9066508 L55.4421735,35.4398311 L60.7008066,35.4398311 L60.7008066,0 L55.4421735,0 L55.4421735,0 Z M55.4421735,24.3913784 C55.4421735,28.702224 53.4451586,31.1852817 49.922113,31.1852817 C46.4451581,31.1852817 44.3968655,29.2618049 44.3968655,23.8897105 L44.3968655,20.2904307 C44.3968655,14.9105459 46.4451581,12.989862 49.922113,12.989862 C53.4451586,12.989862 55.4421735,15.4701269 55.4421735,19.7831773 L55.4421735,24.3913784 Z M86.1250669,8.17808337 L83.6446187,8.17808337 C77.4097825,8.17808337 74.0826593,12.2309662 74.0826593,20.0883231 L74.0826593,24.0862326 C74.0826593,31.9434425 77.4097825,36 83.6446187,36 L86.1250669,36 C92.3520485,36 95.6842105,31.9434425 95.6842105,24.0862326 L95.6842105,20.0883231 C95.6842105,12.2309662 92.3520485,8.17808337 86.1250669,8.17808337 Z M90.4175745,23.8897105 C90.4175745,29.2618049 88.3715049,31.1852817 84.89455,31.1852817 L84.8721716,31.1852817 C81.3953649,31.1852817 79.3463312,29.2618049 79.3463312,23.8897105 L79.3463312,20.2904307 C79.3463312,14.9105459 81.3953649,12.989862 84.8721716,12.989862 L84.89455,12.989862 C88.3715049,12.989862 90.4175745,14.9105459 90.4175745,20.2904307 L90.4175745,23.8897105 Z M65.1007604,35.4398311 L70.3687302,35.4398311 L70.3687302,8.83335307 L65.1007604,8.83335307 L65.1007604,35.4398311 Z M70.3672482,0 L65.0992784,0 L65.0992784,4.74387042 L70.3672482,4.74387042 L70.3672482,0 Z M65.1007604,0 L70.3672482,0 L65.1007604,0 Z M11.3783168,8.8004279 C8.72476931,8.8004279 6.48351833,10.1109673 5.25581727,11.8880446 L5.25581727,8.82041818 L0,8.82041818 L0,35.4076409 L5.25581727,35.4076409 L5.25581727,20.7513831 C5.25581727,16.2418106 7.20036889,13.9402823 10.5114863,13.9402823 C10.5064475,13.9452799 14.4819522,13.9452799 14.4819522,13.9452799 L14.4819522,8.8004279 C14.4819522,8.8004279 11.3811326,8.80263271 11.3783168,8.8004279 Z M25.7002114,8.82541575 L17.7939589,8.82541575 L17.7939589,13.9630653 L25.5483049,13.9630653 C28.8162957,13.9630653 30.6037538,15.5837481 30.6037538,18.4726379 L30.6037538,19.4280558 C29.1238138,18.7727861 27.1339125,18.4169297 24.6282701,18.4169297 C18.5460814,18.4169297 13.9510945,21.0993022 13.9510945,27.0308306 C13.9510945,33.5647132 18.909175,35.9970603 23.2507373,35.9970603 C26.1606734,35.9970603 28.767982,34.6309596 30.6037538,32.8080222 L30.6037538,35.4398311 L35.7650185,35.4398311 L35.7650185,17.7416697 C35.7650185,11.709455 31.6807339,8.82541575 25.7002114,8.82541575 Z M30.6037538,27.8905597 C29.3782757,29.5618061 26.9279125,31.2881728 24.1174196,31.2881728 C20.6426877,31.2881728 18.9574887,29.5110955 18.9574887,26.8772288 C18.9574887,24.4470866 21.1030015,22.9242974 24.4754744,22.9242974 C27.3370967,22.9242974 29.1721275,23.383045 30.6037538,24.0890254 L30.6037538,27.8905597 Z" id="_85159784" fill="#2C2D2F"></path>
                    </g>
                </g>
            </g>
        </g>
    </g>
</svg>