<?xml version="1.0" encoding="UTF-8"?>
<svg width="20px" height="20px" viewBox="0 0 20 20" version="1.1" xmlns="http://www.w3.org/2000/svg" xmlns:xlink="http://www.w3.org/1999/xlink">
    <!-- Generator: Sketch 55.1 (78136) - https://sketchapp.com -->
    <title>noun_news feed updates_2064405</title>
    <desc>Created with Sketch.</desc>
    <g id="Page-1" stroke="none" stroke-width="1" fill="none" fill-rule="evenodd">
        <g id="R1-V4-Desktop-Rubrik-Podcasts-Liste-I" transform="translate(-393.000000, -443.000000)" fill="#FFFFFFFFF" fill-rule="nonzero">
            <g id="Group" transform="translate(0.000000, 214.000000)">
                <g id="BTN-hören" transform="translate(380.000000, 217.000000)">
                    <g id="noun_news-feed-updates_2064405" transform="translate(13.000000, 12.000000)">
                        <g id="Group">
                            <path d="M0.416666667,0 C0.186666667,0 0,0.186666667 0,0.416666667 L0,3.75 C0,3.98 0.186666667,4.16666667 0.416666667,4.16666667 C8.9175,4.16666667 15.8333333,11.0825 15.8333333,19.5833333 C15.8333333,19.8133333 16.02,20 16.25,20 L19.5833333,20 C19.8133333,20 20,19.8133333 20,19.5833333 C20,8.785 11.215,0 0.416666667,0 Z" id="Shape"></path>
                            <path d="M0.416666667,6.66666667 C0.186666667,6.66666667 0,6.85333333 0,7.08333333 L0,10.4166667 C0,10.6466667 0.186666667,10.8333333 0.416666667,10.8333333 C5.24166667,10.8333333 9.16666667,14.7583333 9.16666667,19.5833333 C9.16666667,19.8133333 9.35333333,20 9.58333333,20 L12.9166667,20 C13.1466667,20 13.3333333,19.8133333 13.3333333,19.5833333 C13.3333333,12.4608333 7.53916667,6.66666667 0.416666667,6.66666667 Z" id="Shape"></path>
                            <circle id="Oval" cx="2.91666667" cy="17.0833333" r="2.91666667"></circle>
                        </g>
                    </g>
                </g>
            </g>
        </g>
    </g>
</svg>