<?xml version="1.0" encoding="UTF-8"?>
<svg width="20px" height="20px" viewBox="0 0 20 20" version="1.1" xmlns="http://www.w3.org/2000/svg" xmlns:xlink="http://www.w3.org/1999/xlink">
    <!-- Generator: Sketch 55.1 (78136) - https://sketchapp.com -->
    <title>noun_soccer_1914416 (1)</title>
    <desc>Created with Sketch.</desc>
    <g id="Page-1" stroke="none" stroke-width="1" fill="none" fill-rule="evenodd">
        <g id="R1-V4-Desktop-Flypout-Programm" transform="translate(-1063.000000, -82.000000)" fill="#2A2A2A" fill-rule="nonzero">
            <g id="Group-10">
                <g id="Group-9">
                    <g id="noun_soccer_1914416-(1)" transform="translate(1063.000000, 82.000000)">
                        <path d="M10.1917778,5.404 C10.0857778,5.32688889 9.914,5.32688889 9.80755556,5.404 L6.20288889,8.02311111 C6.09666667,8.10022222 6.04355556,8.26377778 6.084,8.38844444 L7.46111111,12.6262222 C7.50155556,12.7513333 7.64088889,12.8524444 7.77177778,12.8524444 L12.2277778,12.8524444 C12.3591111,12.8524444 12.4982222,12.7513333 12.5386667,12.6262222 L13.9155556,8.38844444 C13.9564444,8.26355556 13.9028889,8.10022222 13.7968889,8.02288889 L10.1917778,5.404 Z" id="Shape"></path>
                        <path d="M10,0 C4.486,0 0,4.486 0,10 C0,15.514 4.486,20 10,20 C15.514,20 20,15.5137778 20,10 C20,4.486 15.514,0 10,0 Z M17.2635556,14.3197778 C17.228,14.2222222 17.1208889,14.1755556 17.0253333,14.2155556 L14.1602222,15.4135556 C14.0642222,15.4537778 13.932,15.5502222 13.8642222,15.6291111 L11.8395556,17.9835556 C11.7717778,18.0624444 11.7831111,18.1782222 11.8646667,18.2424444 L12.4671111,18.7146667 C11.6824444,18.9371111 10.8555556,19.0586667 10.0004444,19.0586667 C9.14533333,19.0586667 8.31822222,18.9371111 7.53355556,18.7146667 L8.13577778,18.2424444 C8.21755556,18.1782222 8.22888889,18.0624444 8.16111111,17.9835556 L6.13644444,15.6291111 C6.06866667,15.5504444 5.936,15.4537778 5.84,15.4135556 L2.97533333,14.2155556 C2.87933333,14.1753333 2.77266667,14.222 2.73688889,14.32 L2.47466667,15.0368889 C1.56733333,13.6857778 1.01577778,12.078 0.95,10.3473333 L1.58466667,10.774 C1.67088889,10.832 1.78466667,10.8066667 1.83866667,10.718 L3.45222222,8.06511111 C3.50622222,7.97622222 3.55688889,7.82022222 3.56555556,7.71666667 L3.81977778,4.622 C3.82844444,4.51844444 3.75088889,4.43133333 3.64711111,4.42755556 L2.88777778,4.39977778 C3.91533333,3.09755556 5.29022222,2.08177778 6.87377778,1.49777778 L6.66333333,2.23622222 C6.63488889,2.33622222 6.69377778,2.43666667 6.79488889,2.46044444 L9.81688889,3.17511111 C9.918,3.19911111 10.082,3.19911111 10.1831111,3.17511111 L13.2051111,2.46044444 C13.3062222,2.43644444 13.3651111,2.336 13.3368889,2.236 L13.1264444,1.49777778 C14.7097778,2.08177778 16.0848889,3.09755556 17.1126667,4.39977778 L16.3533333,4.42755556 C16.2493333,4.43133333 16.1722222,4.51844444 16.1808889,4.622 L16.4353333,7.71666667 C16.4437778,7.82022222 16.4944444,7.97622222 16.5484444,8.06511111 L18.162,10.718 C18.2162222,10.8066667 18.33,10.832 18.4164444,10.774 L19.0508889,10.3473333 C18.9853333,12.0777778 18.4337778,13.6853333 17.5264444,15.0368889 L17.2635556,14.3197778 Z" id="Shape"></path>
                    </g>
                </g>
            </g>
        </g>
    </g>
</svg>