<?xml version="1.0" encoding="UTF-8"?>
<svg width="63px" height="52px" viewBox="0 0 63 52" version="1.1" xmlns="http://www.w3.org/2000/svg" xmlns:xlink="http://www.w3.org/1999/xlink">
    <!-- Generator: Sketch 55.1 (78136) - https://sketchapp.com -->
    <title>Shape</title>
    <desc>Created with Sketch.</desc>
    <g id="Page-1" stroke="none" stroke-width="1" fill="none" fill-rule="evenodd" opacity="0.9">
        <g id="R1-V4-Desktop-Start-IV" transform="translate(-688.000000, -5106.000000)" fill="#F4F4F4" fill-rule="nonzero">
            <g id="newsletter" transform="translate(-1.000000, 5040.000000)">
                <path d="M745.116951,66 L695.883049,66 C692.087736,66 689,69.1079727 689,72.9281603 L689,111.07184 C689,114.892027 692.087736,118 695.883049,118 L745.116951,118 C748.912264,118 752,114.892027 752,111.07184 L752,72.9281603 C752,69.1079727 748.912264,66 745.116951,66 Z M733,88.1377363 L749,74 L749,108 L733,88.1377363 Z M695.667329,69 L745.279819,69 C746.905474,69 748.315419,69.9318063 749,71.2858071 L725.124285,92.2726824 C722.501515,94.5779309 718.548285,94.5754491 715.928428,92.2671672 L692,71.1834987 C692.702753,69.8849264 694.082874,69 695.667329,69 Z M708,88.0884245 L692,108 L692,74 L708,88.0884245 Z M745.073988,115 L695.880759,115 C694.097458,115 692.575085,113.855196 692,112.257484 L709.647727,90 L714.145798,94.0138739 C715.965686,95.6378943 718.249245,96.4499737 720.532943,96.4499737 C722.812651,96.4499737 725.092497,95.640525 726.911284,94.0214893 L731.359701,90.0614771 L749,112.123868 C748.462878,113.79095 746.906393,115 745.073988,115 Z" id="Shape"></path>
            </g>
        </g>
    </g>
</svg>