<?xml version="1.0" encoding="UTF-8"?>
<svg width="38px" height="80px" viewBox="0 0 38 80" version="1.1" xmlns="http://www.w3.org/2000/svg" xmlns:xlink="http://www.w3.org/1999/xlink">
    <!-- Generator: Sketch 55.1 (78136) - https://sketchapp.com -->
    <title>Group 15</title>
    <desc>Created with Sketch.</desc>
    <g id="Page-1" stroke="none" stroke-width="1" fill="none" fill-rule="evenodd">
        <g id="R1-V4-Desktop-Rubrik-Podcasts-Liste-II-Copy" transform="translate(0.000000, -2066.000000)">
            <g id="Group-5-Copy-2" transform="translate(-42.000000, 1826.000000)">
                <g id="Group-2" transform="translate(0.000000, 240.000000)">
                    <g id="Group-15">
                        <circle id="Oval-2-Copy" fill-opacity="0.5" fill="#D8D8D8" cx="40" cy="40" r="40"></circle>
                        <g id="Group-8" transform="translate(55.790323, 40.000000) scale(-1, 1) translate(-55.790323, -40.000000) translate(51.290323, 28.000000)" fill="#FFFFFFFFF" stroke="#FFFFFFFFF" stroke-width="2">
                            <path d="M1.74731574,11.6275297 L1.74731574,11.6000574 L7.90340141,0.937404283 C7.86825855,0.998273491 7.7904254,1.01912882 7.72955619,0.983985968 C7.66868698,0.948843114 7.64783165,0.87100996 7.68297451,0.810140752 L1.44548265,11.6137935 L7.68297451,22.4174463 C7.64783165,22.3565771 7.66868698,22.278744 7.72955619,22.2436011 C7.7904254,22.2084583 7.86825855,22.2293136 7.90340141,22.2901828 L1.74731574,11.6275297 Z" id="Combined-Shape" transform="translate(4.706794, 11.613794) scale(-1, 1) translate(-4.706794, -11.613794) "></path>
                        </g>
                    </g>
                </g>
            </g>
        </g>
    </g>
</svg>