<?xml version="1.0" encoding="UTF-8"?>
<svg width="21px" height="20px" viewBox="0 0 21 20" version="1.1" xmlns="http://www.w3.org/2000/svg" xmlns:xlink="http://www.w3.org/1999/xlink">
    <!-- Generator: Sketch 55.1 (78136) - https://sketchapp.com -->
    <title>noun_Search_875351</title>
    <desc>Created with Sketch.</desc>
    <g id="Page-1" stroke="none" stroke-width="1" fill="none" fill-rule="evenodd">
        <g id="R1-V4-Desktop-Flypout-Programm" transform="translate(-870.000000, -82.000000)" fill="#393939" fill-rule="nonzero">
            <g id="Group-10">
                <g id="Group-9">
                    <g id="noun_Search_875351" transform="translate(870.000000, 82.000000)">
                        <path d="M20.4241187,18.1069959 L15.3305384,13.1961591 C17.8915564,9.98628258 17.6354546,5.34979424 14.562233,2.41426612 C12.8833434,0.795610425 10.720706,0 8.52961277,0 C6.33851958,0 4.17588215,0.795610425 2.49699256,2.41426612 C-0.832330855,5.62414266 -0.832330855,10.8367627 2.49699256,14.0466392 C4.17588215,15.6652949 6.33851958,16.4609053 8.52961277,16.4609053 C10.3507811,16.4609053 12.1719495,15.9122085 13.6801046,14.78738 L18.8021406,19.6707819 C19.0297866,19.8902606 19.3143442,20 19.6273575,20 C19.9119151,20 20.2249284,19.8902606 20.4525744,19.6707819 C20.8794108,19.2592593 20.8794108,18.5459534 20.4241187,18.1069959 Z M8.55806853,14.2386831 C6.87917894,14.2386831 5.34256813,13.6076818 4.14742639,12.4828532 C1.72868716,10.1508916 1.72868716,6.33744856 4.14742639,3.97805213 C5.31411238,2.85322359 6.87917894,2.22222222 8.55806853,2.22222222 C10.2369581,2.22222222 11.7735689,2.85322359 12.9687107,3.97805213 C14.1638524,5.10288066 14.789879,6.61179698 14.789879,8.23045267 C14.789879,9.84910837 14.1353966,11.3305898 12.9687107,12.4828532 C11.8020247,13.6351166 10.2085024,14.2386831 8.55806853,14.2386831 Z" id="Shape"></path>
                    </g>
                </g>
            </g>
        </g>
    </g>
</svg>