<svg width="28px" height="20px" xmlns="http://www.w3.org/2000/svg" xmlns:xlink="http://www.w3.org/1999/xlink"><defs><path d="M12.981 11.6656c-1.4462 0-2.6477-1.1373-2.6477-2.5535 0-1.4163 1.1792-2.5536 2.6477-2.5536 1.4684 0 2.6476 1.1373 2.6476 2.5536 0 1.4162-1.2015 2.5535-2.6476 2.5535zm-8.6762 6.338c.2285-.2204.2285-.5878 0-.845-1.9429-2.2413-3.0477-5.0704-3.0477-8.0098 0-2.9761 1.1429-5.8787 3.2-8.12.2286-.2572.2286-.6246 0-.845C4.343.0734 4.1524 0 4 0c-.1905 0-.3429.0735-.4571.2205C1.257 2.6822 0 5.8788 0 9.1855c0 3.2334 1.219 6.3932 3.4286 8.855.1143.1469.3047.2204.4952.2204.1143-.0735.2667-.147.381-.2572zm18.3428-.1102C24.819 15.4317 26 12.3454 26 9.1121c0-3.27-1.219-6.43-3.4667-8.8916C22.419.0735 22.2286 0 22.0381 0c-.1905 0-.3429.0735-.4571.1837-.2286.2205-.2667.5879 0 .845 2.019 2.2414 3.1238 5.1072 3.1238 8.0466 0 2.9027-1.0667 5.7318-3.0477 7.9363-.2285.2572-.2285.6247.0381.8451.1143.1102.3048.1837.4572.1837.1905.0735.3428 0 .4952-.147zm-3.3524-3.3067c1.2572-1.58 1.9429-3.4538 1.9429-5.4379 0-2.0208-.7238-4.0049-2.0571-5.5848-.1143-.147-.3048-.2205-.4953-.2205s-.3428.0735-.4571.1838c-.2286.2204-.2667.5878-.0762.8083 1.1428 1.3594 1.7905 3.0863 1.7905 4.8132s-.5715 3.3435-1.6762 4.703c-.1905.2205-.1524.5879.0762.8083.1142.1103.3047.1837.4571.1837.1905 0 .381-.1102.4952-.2571zm-11.638.1102c.2285-.2205.2666-.5879.0761-.8084-1.1047-1.3594-1.7143-3.0128-1.7143-4.7397 0-1.7636.6477-3.4905 1.8286-4.8867.1905-.2205.1905-.5879-.038-.8083-.1144-.1103-.3048-.1837-.4572-.1837-.1905 0-.381.0734-.4953.2204-1.4095 1.58-2.1714 3.6007-2.1714 5.6583 0 2.0208.6857 3.9314 1.981 5.5113.1143.147.3047.2572.4952.2572.1905-.0367.381-.1102.4952-.2204z" id="a"/></defs><g transform="translate(1 1)" fill-rule="nonzero" stroke="#FF8300" fill="none"><use fill="#FF8300" xlink:href="#a"/><use xlink:href="#a"/><use xlink:href="#a"/><use xlink:href="#a"/></g></svg>