<?xml version="1.0" encoding="UTF-8"?>
<svg width="98px" height="100px" viewBox="0 0 98 100" version="1.1" xmlns="http://www.w3.org/2000/svg" xmlns:xlink="http://www.w3.org/1999/xlink">
    <!-- Generator: Sketch 55.1 (78136) - https://sketchapp.com -->
    <title>Group 5</title>
    <desc>Created with Sketch.</desc>
    <defs>
        <circle id="path-1" cx="30" cy="30" r="30"></circle>
        <filter x="-50.0%" y="-50.0%" width="200.0%" height="200.0%" filterUnits="objectBoundingBox" id="filter-2">
            <feOffset dx="0" dy="0" in="SourceAlpha" result="shadowOffsetOuter1"></feOffset>
            <feGaussianBlur stdDeviation="10" in="shadowOffsetOuter1" result="shadowBlurOuter1"></feGaussianBlur>
            <feColorMatrix values="0 0 0 0 0   0 0 0 0 0   0 0 0 0 0  0 0 0 0.05 0" type="matrix" in="shadowBlurOuter1"></feColorMatrix>
        </filter>
    </defs>
    <g id="Page-1" stroke="none" stroke-width="1" fill="none" fill-rule="evenodd">
        <g id="R1-V4-Desktop-Rubrik-Podcasts-Liste-I" transform="translate(-221.000000, -618.000000)">
            <g id="teilen" transform="translate(240.000000, 638.000000)">
                <g id="Group-5">
                    <g id="Oval-4-Copy">
                        <use fill="black" fill-opacity="1" filter="url(#filter-2)" xlink:href="#path-1"></use>
                        <use fill="#FF8300FFF" fill-rule="evenodd" xlink:href="#path-1"></use>
                    </g>
                    <path d="M39.1727417,23.1167537 C40.1898222,22.5016611 40.9702412,21.5263408 41.3365029,20.3644993 C40.3842226,20.9354533 39.3319246,21.3483626 38.2091918,21.5719032 C37.3132594,20.6037019 36.0327522,20 34.6156013,20 C31.8968128,20 29.693608,22.2282867 29.693608,24.9762696 C29.693608,25.3663977 29.7344603,25.7465591 29.8189822,26.1096346 C25.7281211,25.9017561 22.100722,23.9226388 19.6707167,20.9098244 C19.2466984,21.6473659 19.0044022,22.5016611 19.0044022,23.4129093 C19.0044022,25.1385857 19.8735693,26.6620788 21.1949287,27.5562411 C20.3877443,27.5306122 19.6284557,27.304224 18.9635499,26.9340294 L18.9635499,26.9952539 C18.9635499,29.407214 20.6596232,31.4190793 22.9149498,31.8747034 C22.5007924,31.991457 22.0669132,32.0498339 21.6161296,32.0498339 C21.2991724,32.0498339 20.9892587,32.0199336 20.6906145,31.9615567 C21.3160768,33.9378263 23.1347068,35.3787375 25.2900158,35.4171808 C23.6038035,36.752729 21.4808945,37.5472235 19.1748547,37.5472235 C18.7776017,37.5472235 18.3845747,37.5258662 18,37.4788799 C20.1792569,38.8898908 22.7670365,39.7142857 25.5478077,39.7142857 C34.6057404,39.7142857 39.5559077,32.1309919 39.5559077,25.5543427 C39.5559077,25.3379212 39.5530903,25.1229236 39.5432294,24.9107736 C40.5053707,24.2088277 41.3421377,23.3317513 42,22.3336497 C41.1167459,22.7294732 40.167283,22.9971523 39.1727417,23.1167537 Z" id="Shape" fill="#272727"></path>
                </g>
            </g>
        </g>
    </g>
</svg>