<?xml version="1.0" encoding="UTF-8"?>
<svg width="60px" height="60px" viewBox="0 0 60 60" version="1.1" xmlns="http://www.w3.org/2000/svg" xmlns:xlink="http://www.w3.org/1999/xlink">
    <!-- Generator: Sketch 55.1 (78136) - https://sketchapp.com -->
    <title>insta</title>
    <desc>Created with Sketch.</desc>
    <g id="Page-1" stroke="none" stroke-width="1" fill="none" fill-rule="evenodd">
        <g id="R1-V4-Desktop-Start-IV" transform="translate(-900.000000, -5620.000000)">
            <g id="footer" transform="translate(0.000000, 5448.000000)">
                <g id="insta" transform="translate(900.000000, 172.000000)">
                    <circle id="Path" fill="#FFFFFFFFF" cx="30" cy="30" r="30"></circle>
                    <path d="M23.6470588,17.0000124 C20.5186094,17.0000124 18,19.5186359 18,22.6470712 L18,35.3529606 C18,38.4813959 20.5186094,41.0000124 23.6470588,41.0000124 L36.3529412,41.0000124 C39.4813906,41.0000124 42,38.4813959 42,35.3529606 L42,22.6470712 C42,19.5186359 39.4813906,17.0000124 36.3529412,17.0000124 L23.6470588,17.0000124 L23.6470588,17.0000124 Z M37.0588235,20.5294241 C37.8385059,20.5294241 38.4705882,21.1614712 38.4705882,21.9411888 C38.4705882,22.7208712 37.8385059,23.3529571 37.0588235,23.3529571 C36.2791059,23.3529571 35.6470588,22.7208712 35.6470588,21.9411888 C35.6470588,21.1614712 36.2791059,20.5294241 37.0588235,20.5294241 Z M30,23.0000124 C33.3053612,23.0000124 36,25.6946865 36,29.0000124 C36,32.3053488 33.3053612,35.0000124 30,35.0000124 C26.6946388,35.0000124 24,32.3053488 24,29.0000124 C24,25.6946865 26.6946388,23.0000124 30,23.0000124 Z M30,24.4117806 C27.45762,24.4117806 25.4117647,26.4576747 25.4117647,29.0000194 C25.4117647,31.5423606 27.45762,33.5882547 30,33.5882547 C32.54238,33.5882547 34.5882353,31.5423606 34.5882353,29.0000194 C34.5882353,26.4576747 32.54238,24.4117806 30,24.4117806 Z" id="Shape" fill="#FF8300" fill-rule="nonzero"></path>
                </g>
            </g>
        </g>
    </g>
</svg>