<?xml version="1.0" encoding="UTF-8"?>
<svg width="138px" height="138px" viewBox="0 0 138 138" version="1.1" xmlns="http://www.w3.org/2000/svg" xmlns:xlink="http://www.w3.org/1999/xlink">
    <!-- Generator: Sketch 55.1 (78136) - https://sketchapp.com -->
    <title>noun_news feed updates_2064405</title>
    <desc>Created with Sketch.</desc>
    <g id="Page-1" stroke="none" stroke-width="1" fill="none" fill-rule="evenodd">
        <g id="R1-V4-Desktop-Rubrik-Podcasts" transform="translate(-260.000000, -284.000000)" fill-rule="nonzero">
            <g id="noun_news-feed-updates_2064405" transform="translate(260.000000, 284.000000)">
                <g id="Group">
                    <path d="M2.875,0 C1.288,0 0,1.288 0,2.875 L0,25.875 C0,27.462 1.288,28.75 2.875,28.75 C61.53075,28.75 109.25,76.46925 109.25,135.125 C109.25,136.712 110.538,138 112.125,138 L135.125,138 C136.712,138 138,136.712 138,135.125 C138,60.6165 77.3835,0 2.875,0 Z" id="Shape" fill="#FF8300"></path>
                    <path d="M2.85884831,46.5168539 C1.28076404,46.5168539 0,47.797618 0,49.3757022 L0,72.2464888 C0,73.824573 1.28076404,75.1053371 2.85884831,75.1053371 C35.9643118,75.1053371 62.8946629,102.035688 62.8946629,135.141152 C62.8946629,136.719236 64.175427,138 65.7535112,138 L88.6242978,138 C90.202382,138 91.4831461,136.719236 91.4831461,135.141152 C91.4831461,86.2719986 51.7280014,46.5168539 2.85884831,46.5168539 Z" id="Shape" fill="#F3F3F2"></path>
                    <circle id="Oval" fill="#FF8300" cx="20.5449438" cy="117.455056" r="20.5449438"></circle>
                </g>
            </g>
        </g>
    </g>
</svg>